<?xml version="1.0" encoding="UTF-8"?>
<svg width="1200pt" height="1200pt" version="1.1" viewBox="0 0 1200 1200" xmlns="http://www.w3.org/2000/svg">
 <path d="m1155.6 812.4c-1.1992-4.8008-6-8.3984-10.801-7.1992-10.801 2.3984-24-1.1992-39.602-9.6016-3.6016-2.3984-6-4.8008-9.6016-8.3984-8.3984-10.801-10.801-21.602-13.199-26.398-19.199-62.398-70.801-79.199-70.801-79.199-15.602-6-33.602-7.1992-48-8.3984h-12-12c-15.602-1.1992-36-3.6016-54-15.602 34.801-7.1992 100.8-16.801 144-25.199 45.602-8.3984 84-15.602 99.602-19.199 4.8008-1.1992 8.3984-6 7.1992-10.801-1.1992-4.8008-4.8008-8.3984-9.6016-8.3984h-3.6016c-18-3.6016-52.801-10.801-93.602-18-38.398-7.1992-96-14.398-128.4-21.602 21.602-10.801 39.602-25.199 51.602-43.199 3.6016-6 8.3984-12 14.398-20.398 2.3984-3.6016 4.8008-8.3984 8.3984-12 6-9.6016 14.398-22.801 18-26.398 3.6016-4.8008 13.199-9.6016 19.199-12 12-4.8008 18-7.1992 31.199-7.1992 3.6016 0 8.3984 1.1992 12 2.3984 12 2.3984 26.398 6 42 0 7.1992-2.3984 13.199-4.8008 19.199-8.3984 15.602-8.3984 26.398-21.602 33.602-37.199 2.3984-2.3984 3.6016-6 4.8008-9.6016 2.3984-4.8008 0-10.801-3.6016-13.199-4.8008-2.3984-9.6016-1.1992-13.199 2.3984-6 9.6016-18 15.602-34.801 20.398-3.6016 1.1992-8.3984 1.1992-13.199 0-14.398-1.1992-22.801-7.1992-27.602-9.6016-57.602-30-105.6-6-105.6-6-15.602 7.1992-28.801 18-39.602 28.801-2.3984 2.3984-6 4.8008-8.3984 8.3984-3.6016 2.3984-6 6-9.6016 8.3984-12 10.801-33.602 25.199-57.602 30 20.398-31.199 50.398-78 79.199-120 24-36 44.398-67.199 54-82.801l2.3984-2.3984c3.6016-3.6016 3.6016-9.6016 1.1992-13.199-3.6016-3.6016-8.3984-4.8008-13.199-2.3984-13.199 8.3984-45.602 30-82.801 54-37.199 25.199-76.801 51.602-106.8 70.801 8.3984-24 10.801-46.801 7.1992-68.398-1.1992-7.1992-2.3984-14.398-4.8008-24-1.1992-4.8008-2.3984-9.6016-3.6016-14.398-2.3984-10.801-6-25.199-6-31.199s2.3984-16.801 4.8008-21.602c4.8008-12 8.3984-18 16.801-26.398 3.6016-2.3984 7.1992-4.8008 10.801-7.1992 10.801-7.1992 22.801-14.398 30-30 3.6016-6 6-13.199 7.1992-19.199 4.8008-16.801 3.6016-34.801-2.3984-49.199-1.1992-3.6016-1.1992-7.1992-2.3984-9.6016-1.1992-4.8008-7.1992-7.1992-12-6-4.8008 1.1992-8.3984 6-7.1992 10.801 2.3984 10.801-1.1992 24-9.6016 39.602-2.3984 3.6016-4.8008 6-8.3984 9.6016-10.801 8.3984-21.602 10.801-26.398 13.199-62.398 19.199-79.199 70.801-79.199 70.801-6 15.602-7.1992 33.602-8.3984 48v12 12c-1.1992 18-4.8008 43.199-21.602 62.398-8.3984-34.801-19.199-93.602-28.801-147.6-7.1992-42-14.398-79.199-18-97.199l0.011719-2.4102c0-4.8008-3.6016-9.6016-8.3984-9.6016-4.8008-1.1992-9.6016 2.3984-10.801 7.1992-3.6016 15.602-10.801 55.199-19.199 102-7.1992 40.801-15.602 86.398-22.801 121.2-10.801-21.602-25.199-38.398-43.199-51.602-6-3.6016-12-8.3984-20.398-14.398-3.6016-2.3984-8.3984-4.8008-12-8.3984-9.6016-6-22.801-14.398-26.398-18-4.8008-3.6016-9.6016-13.199-12-19.199-4.8008-12-7.1992-18-7.1992-31.199 0-3.6016 1.1992-8.3984 2.3984-12 2.3984-12 6-26.398 0-42-2.3984-7.1992-4.8008-13.199-8.3984-19.199-8.3984-15.602-21.602-26.398-37.199-33.602-2.3984-2.3984-6-3.6016-9.6016-4.8008-4.8008-2.3984-10.801 0-13.199 3.6016-6.0039 6-4.8047 12-0.003906 14.398 9.6016 6 15.602 18 20.398 34.801 1.1992 3.6016 1.1992 8.3984 0 13.199-1.1992 14.398-7.1992 22.801-9.6016 27.602-30 57.602-6 105.6-6 105.6 7.1992 15.602 18 28.801 28.801 39.602 2.3984 2.3984 4.8008 6 8.3984 8.3984 2.3984 3.6016 6 6 8.3984 9.6016 8.3984 8.3984 30 36 30 67.199-1.1992 0-1.1992 1.1992-2.3984 1.1992-30-18-82.801-52.801-129.6-84-33.602-22.801-63.602-43.199-79.199-52.801l-2.3984-2.3984c-3.6016-3.6016-9.6016-3.6016-13.199-1.1992-3.6016 3.6016-4.8008 8.3984-2.3984 13.199 8.3984 13.199 30 46.801 56.398 85.199 24 36 50.398 75.602 69.602 105.6-20.398-6-39.602-7.1992-58.801-3.6016-7.1992 1.1992-14.398 2.3984-24 4.8008-4.8008 1.1992-9.6016 2.3984-14.398 3.6016-10.801 2.3984-25.199 6-31.199 6s-16.801-2.3984-21.602-4.8008c-12-4.8008-18-8.3984-26.398-16.801-2.3984-3.6016-4.8008-7.1992-7.1992-10.801-7.1992-10.801-14.398-22.801-30-30-6-3.6016-13.199-6-19.199-7.1992-16.801-2.4023-33.602-2.4023-49.203 3.5977-3.6016 1.1992-7.1992 1.1992-9.6016 2.3984-4.8008 1.1992-7.1992 7.1992-6 12 1.1992 4.8008 6 8.3984 10.801 7.1992 10.801-2.3984 24 1.1992 39.602 9.6016 3.6016 2.3984 6 4.8008 9.6016 8.3984 8.3984 10.801 10.801 21.602 13.199 26.398 19.199 62.398 70.801 79.199 70.801 79.199 15.602 6 33.602 7.1992 48 8.3984h12 12c14.398 1.1992 32.398 3.6016 48 13.199-36 8.3984-85.199 18-134.4 26.398-42 7.1992-79.199 14.398-97.199 18l-2.4023 0.007813c-4.8008 0-9.6016 3.6016-9.6016 8.3984-1.1992 4.8008 2.3984 9.6016 7.1992 10.801 15.602 3.6016 55.199 12 102 20.398 43.199 8.3984 86.398 18 121.2 25.199-20.398 10.801-37.199 24-49.199 42-3.6016 6-8.3984 12-14.398 20.398-2.3984 3.6016-4.8008 8.3984-8.3984 12-6 9.6016-14.398 22.801-18 26.398-3.6016 4.8008-13.199 9.6016-19.199 12-12 4.8008-18 7.1992-31.199 7.1992-3.6016 0-8.3984-1.1992-12-2.3984-12-2.3984-26.398-6-42 0-7.1992 2.3984-13.199 4.8008-19.199 8.3984-15.602 8.3984-26.398 21.602-33.602 37.199-2.3984 2.3984-3.6016 6-4.8008 9.6016-2.3984 4.8008 0 10.801 3.6016 13.199 5.9961 6.0078 11.996 3.6094 14.395 0.007812 6-9.6016 18-15.602 34.801-20.398 3.6016-1.1992 8.3984-1.1992 13.199 0 14.398 1.1992 22.801 7.1992 27.602 9.6016 57.602 30 105.6 6 105.6 6 15.602-7.1992 28.801-18 39.602-28.801 2.3984-2.3984 6-4.8008 8.3984-8.3984 3.6016-2.3984 6-6 9.6016-8.3984 12-9.6016 30-22.801 51.602-28.801-20.398 31.199-50.398 76.801-78 117.6-24 36-45.602 68.398-55.199 84l-2.3984 2.3984c-3.6016 3.6016-3.6016 9.6016-1.1992 13.199 2.3984 2.3984 4.8008 3.6016 8.3984 3.6016 1.1992 0 3.6016 0 4.8008-1.1992 13.199-8.3984 45.602-30 84-55.199 38.398-25.199 80.398-54 110.4-73.199-7.1992 21.602-8.3984 43.199-4.8008 63.602 1.1992 7.1992 2.3984 14.398 4.8008 24 1.1992 4.8008 2.3984 9.6016 3.6016 14.398 2.3984 10.801 6 25.199 6 31.199s-2.3984 16.801-4.8008 21.602c-4.8008 12-8.3984 18-16.801 26.398-3.6016 2.3984-7.1992 4.8008-10.801 7.1992-10.801 7.1992-22.801 14.398-30 30-3.6016 6-6 13.199-7.1992 19.199-4.8008 16.801-3.6016 34.801 2.3984 49.199 1.1992 3.6016 1.1992 7.1992 2.3984 9.6016 1.1992 4.8008 7.1992 7.1992 12 6 4.8008-1.1992 8.3984-6 7.1992-10.801-2.3984-10.801 1.1992-24 9.6016-39.602 2.3984-3.6016 4.8008-6 8.3984-9.6016 10.801-8.3984 21.602-10.801 26.398-13.199 62.398-19.199 79.199-70.801 79.199-70.801 6-15.602 7.1992-33.602 8.3984-48v-12-12c1.1992-18 6-42 21.602-60 8.3984 36 18 103.2 27.602 152.4 8.3984 46.801 15.602 87.602 19.199 102 1.1992 4.8008 4.8008 7.1992 9.6016 7.1992h1.1992c4.8008-1.1992 8.3984-4.8008 8.3984-9.6016v-2.3984c3.6016-18 10.801-54 19.199-96 8.3984-44.398 18-104.4 26.398-140.4 10.801 26.398 27.602 46.801 48 61.199 6 3.6016 12 8.3984 20.398 14.398 3.6016 2.3984 8.3984 4.8008 12 8.3984 9.6016 6 22.801 14.398 26.398 18 4.8008 3.6016 9.6016 13.199 12 19.199 4.8008 12 7.1992 18 7.1992 31.199 0 3.6016-1.1992 8.3984-2.3984 12-2.3984 12-6 26.398 0 42 2.3984 7.1992 4.8008 13.199 8.3984 19.199 8.3984 15.602 21.602 26.398 37.199 33.602 2.3984 2.3984 6 3.6016 9.6016 4.8008 4.8008 2.3984 10.801 0 13.199-3.6016 2.3984-4.8008 1.1992-9.6016-2.3984-13.199-9.6016-6-15.602-18-20.398-34.801-1.1992-3.6016-1.1992-8.3984 0-13.199 1.1992-14.398 7.1992-22.801 9.6016-27.602 30-57.602 6-105.6 6-105.6-7.1992-15.602-18-28.801-28.801-39.602-2.3984-2.3984-4.8008-6-8.3984-8.3984-2.3984-3.6016-6-6-8.3984-9.6016-10.801-13.199-26.398-33.602-30-58.801 31.199 19.199 78 51.602 120 80.398 34.801 24 66 45.602 81.602 55.199l2.3984 2.3984c2.3984 2.3984 4.8008 2.3984 7.1992 2.3984 2.3984 0 4.8008-1.1992 6-2.3984 3.6016-3.6016 4.8008-8.3984 2.3984-13.199-8.3984-13.199-32.398-48-60-86.398-26.398-38.398-56.398-80.398-76.801-110.4 22.801 8.3984 46.801 10.801 68.398 7.1992 7.1992-1.1992 14.398-2.3984 24-4.8008 4.8008-1.1992 9.6016-2.3984 14.398-3.6016 10.801-2.3984 25.199-6 31.199-6s16.801 2.3984 21.602 4.8008c12 4.8008 18 8.3984 26.398 16.801 2.3984 3.6016 4.8008 7.1992 7.1992 10.801 7.1992 10.801 14.398 22.801 30 30 6 3.6016 13.199 6 19.199 7.1992 16.801 4.8008 34.801 3.6016 49.199-2.3984 3.6016-1.1992 7.1992-1.1992 9.6016-2.3984 7.207-3.5938 10.809-9.5938 9.6094-14.395zm-274.8-174c1.1992-8.3984 1.1992-16.801 2.3984-25.199h142.8c-45.602 8.4023-106.8 16.801-145.2 25.199zm-283.2-285.6c32.398 0 62.398 6 91.199 15.602 93.602 36 159.6 127.2 159.6 232.8 0 136.8-111.6 249.6-249.6 249.6s-249.6-111.6-249.6-249.6c0-48 13.199-92.398 37.199-130.8 1.1992-1.1992 2.3984-3.6016 3.6016-4.8008 33.602-51.602 86.398-90 148.8-105.6 18-4.8008 38.398-7.1992 58.801-7.1992zm423.6 241.2h-138c0-8.3984-1.1992-16.801-2.3984-24 37.199 6 97.199 15.602 140.4 24zm21.602-182.4c-15.602 0-31.199 4.8008-45.602 12-21.602 10.801-33.602 33.602-39.602 43.199-2.3984 3.6016-4.8008 8.3984-7.1992 12-4.8008 8.3984-9.6016 14.398-13.199 20.398-15.602 21.602-38.398 36-61.199 44.398-2.3984-8.3984-3.6016-15.602-7.1992-24 24-6 48-21.602 66-50.398 3.6016-6 16.801-27.602 20.398-32.398 9.6016-10.801 30-20.398 36-21.602 18-4.8008 34.801-6 51.602-3.5977zm-132 24c3.6016-2.3984 6-6 9.6016-8.3984 2.3984-2.3984 6-4.8008 8.3984-7.1992 9.6016-9.6016 24-25.199 51.602-28.801 19.199-2.3984 36-3.6016 52.801 1.1992-15.602-1.1992-30 2.3984-44.398 6-6 1.1992-30 8.3984-44.398 26.398-2.3984 2.3984-26.398 38.398-26.398 39.602-8.3984 15.602-27.602 31.199-54 37.199-4.8008-10.801-9.6016-20.398-15.602-31.199 20.395-4.8008 41.992-16.801 62.395-34.801zm-7.1992-116.4c-27.602 40.801-57.602 86.398-78 118.8-6-7.1992-12-15.602-19.199-22.801l99.602-99.602c-1.2031 1.2031-2.4023 2.4023-2.4023 3.6016zm-10.801-19.199s1.1992 0 0 0l-100.8 102c-7.1992-7.1992-15.602-13.199-24-19.199 31.199-19.199 80.398-52.801 124.8-82.801zm-116.4-147.6c-12 12-19.199 25.199-25.199 40.801-7.1992 21.602 0 46.801 2.3984 57.602 1.1992 4.8008 2.3984 9.6016 3.6016 14.398 2.3984 9.6016 3.6016 16.801 4.8008 24 4.8008 28.801-3.6016 56.398-14.398 79.199-7.1992-4.8008-14.398-8.3984-21.602-12 15.602-22.801 22.801-51.602 14.398-87.602-1.1992-7.1992-7.1992-31.199-8.3984-37.199-1.1992-14.398 7.1992-36 10.801-40.801 7.1992-14.398 19.199-27.598 33.598-38.398zm-76.797 110.4v-13.199-10.801c1.1992-13.199-1.1992-33.602 15.602-56.398 12-15.602 24-27.602 38.398-36-12 10.801-19.199 22.801-27.602 36-3.6016 6-15.602 26.398-13.199 50.398 0 3.6016 8.3984 46.801 8.3984 46.801 4.8008 19.199 2.3984 45.602-15.602 69.602-10.801-4.8008-21.602-8.3984-32.398-10.801 15.602-19.203 24-44.402 26.402-75.602zm-60 68.398c-9.6016-1.1992-18-2.3984-27.602-2.3984v-142.8c8.3984 52.801 19.199 110.4 27.602 145.2zm-48-150v146.4c-9.6016 0-19.199 1.1992-28.801 2.3984 8.3984-35.996 19.199-95.996 28.801-148.8zm-183.6-25.199c0 16.801 4.8008 32.398 12 46.801 10.801 21.602 33.602 33.602 43.199 39.602 3.6016 2.3984 8.3984 4.8008 12 7.1992 8.3984 4.8008 14.398 9.6016 20.398 13.199 25.199 18 38.398 44.398 46.801 69.602-8.3984 1.1992-16.801 3.6016-25.199 6-4.8008-27.602-20.398-52.801-52.801-73.199-6-3.6016-27.602-16.801-32.398-20.398-10.801-9.6016-20.398-30-21.602-36-3.5977-16.805-4.7969-34.805-2.3984-52.805zm24 133.2c-2.3984-3.6016-6-6-8.3984-9.6016-2.3984-2.3984-4.8008-6-7.1992-8.3984-9.6016-9.6016-25.199-24-28.801-51.602-2.3984-19.199-3.6016-36 1.1992-52.801-1.1992 15.602 2.3984 30 6 44.398 1.1992 6 8.3984 30 26.398 44.398 2.3984 2.3984 38.398 26.398 39.602 26.398 16.801 9.6016 34.801 31.199 38.398 61.199-10.801 3.6016-21.602 8.3984-31.199 13.199-4.8008-21.59-16.801-44.391-36-67.191zm-4.8008 92.402c-8.3984 6-15.602 12-24 19.199l-98.398-98.398c43.199 28.797 91.199 59.996 122.4 79.199zm-135.6-63.602c-1.1992-1.1992-2.3984-2.3984-2.3984-4.8008l100.8 100.8c-7.1992 7.1992-13.199 14.398-19.199 22.801-21.605-31.199-51.605-76.801-79.203-118.8zm-138 118.8c12 10.801 25.199 18 40.801 24 21.602 7.1992 46.801 0 57.602-2.3984 4.8008-1.1992 9.6016-2.3984 14.398-3.6016 9.6016-2.3984 16.801-3.6016 24-4.8008 22.801-3.6016 45.602 0 64.801 8.3984-4.8008 7.1992-8.3984 14.398-12 21.602-19.199-9.6016-43.199-13.199-72-6-7.1992 1.1992-31.199 7.1992-37.199 8.3984-14.398 1.1992-36-7.1992-40.801-10.801-16.805-9.5977-30.004-21.598-39.602-34.797zm109.2 76.801h-13.199-10.801c-13.199-1.1992-33.602 1.1992-56.398-15.602-15.602-12-27.602-24-36-38.398 10.801 12 22.801 19.199 36 27.602 6 3.6016 26.398 15.602 50.398 13.199 3.6016 0 46.801-8.3984 46.801-8.3984 15.602-4.8008 34.801-3.6016 55.199 7.1992-4.8008 9.6016-8.3984 20.398-10.801 31.199-18-9.6016-38.398-15.602-61.199-16.801zm51.598 52.797c-1.1992 8.3984-2.3984 16.801-2.3984 26.398l-127.2 0.003906c48-9.6016 96-19.199 129.6-26.402zm-135.6 46.801c-1.1992 0-3.6016-1.1992-4.8008-1.1992h138c0 9.6016 1.1992 20.398 2.3984 30-36-8.3984-86.398-19.199-135.6-28.801zm-21.602 183.6c15.602 0 31.199-4.8008 45.602-12 21.602-10.801 33.602-33.602 39.602-43.199 2.3984-3.6016 4.8008-8.3984 7.1992-12 4.8008-8.3984 9.6016-14.398 13.199-20.398 14.398-20.398 36-33.602 56.398-42 2.3984 8.3984 4.8008 15.602 7.1992 22.801-22.801 7.1992-44.398 21.602-62.398 49.199-3.6016 6-16.801 27.602-20.398 32.398-9.6016 10.801-30 20.398-36 21.602-16.801 5.9961-33.602 5.9961-50.402 3.5977zm132-22.801c-3.6016 2.3984-6 6-9.6016 8.3984-2.3984 2.3984-6 4.8008-8.3984 7.1992-9.6016 9.6016-24 25.199-51.602 28.801-19.199 2.3984-36 3.6016-52.801-1.1992 15.602 1.1992 30-2.3984 44.398-6 6-1.1992 30-8.3984 44.398-26.398 2.3984-2.3984 26.398-38.398 26.398-39.602 8.3984-15.602 26.398-30 50.398-36 4.8008 10.801 9.6016 20.398 15.602 31.199-17.992 4.8008-39.594 15.602-58.793 33.602zm3.6016 114c27.602-40.801 57.602-86.398 78-117.6 6 7.1992 12 14.398 19.199 21.602l-99.602 99.602c0-1.2031 1.2031-2.4023 2.4023-3.6016zm9.5977 19.199s-1.1992 0-1.1992 1.1992l102-102c7.1992 7.1992 15.602 13.199 24 19.199-30 18.004-79.199 51.602-124.8 81.602zm122.4 140.4c12-12 19.199-25.199 25.199-40.801 7.1992-21.602 0-46.801-2.3984-57.602-1.1992-4.8008-2.3984-9.6016-3.6016-14.398-2.3984-9.6016-3.6016-16.801-4.8008-24-4.8008-25.199 1.1992-50.398 10.801-72 7.1992 3.6016 14.398 8.3984 21.602 10.801-12 21.602-16.801 48-9.6016 80.398 1.1992 7.1992 7.1992 31.199 8.3984 37.199 1.1992 14.398-7.1992 36-10.801 40.801-9.5977 15.602-20.398 28.801-34.797 39.602zm76.801-110.4v13.199 10.801c-1.1992 13.199 1.1992 33.602-15.602 56.398-12 15.602-24 27.602-38.398 36 12-10.801 19.199-22.801 27.602-36 3.6016-6 15.602-26.398 13.199-50.398 0-3.6016-8.3984-46.801-8.3984-46.801-4.8008-16.801-2.3984-40.801 10.801-63.602 10.801 3.6016 21.602 7.1992 32.398 10.801-12.004 19.203-19.203 42.004-21.602 69.602zm88.797 90c-9.6016-51.602-20.398-115.2-27.602-151.2 9.6016 1.1992 18 1.1992 27.602 2.3984zm19.203 0v-150c9.6016 0 19.199-1.1992 28.801-2.3984-8.4023 38.398-19.203 103.2-28.801 152.4zm190.8 16.801c0-16.801-4.8008-32.398-12-46.801-10.801-21.602-33.602-33.602-43.199-39.602-3.6016-2.3984-8.3984-4.8008-12-7.1992-8.3984-4.8008-14.398-9.6016-20.398-13.199-24-16.801-38.398-43.199-45.602-67.199 8.3984-2.3984 16.801-4.8008 24-7.1992 4.8008 26.398 20.398 52.801 51.602 73.199 6 3.6016 27.602 16.801 32.398 20.398 10.801 9.6016 20.398 30 21.602 36 4.8008 15.602 6 33.602 3.5977 51.602zm-22.797-133.2c2.3984 3.6016 6 6 8.3984 9.6016 2.3984 2.3984 4.8008 6 7.1992 8.3984 9.6016 9.6016 25.199 24 28.801 51.602 2.3984 19.199 3.6016 36-1.1992 52.801 1.1992-15.602-2.3984-30-6-44.398-1.1992-6-8.3984-30-26.398-44.398-2.3984-2.3984-38.398-26.398-39.602-26.398-16.801-9.6016-34.801-31.199-38.398-61.199 10.801-4.8008 20.398-9.6016 31.199-15.602 3.5977 22.793 15.598 46.793 36 69.594zm-7.2031-88.801c7.1992-6 14.398-12 21.602-18l98.398 98.398c-42-30-88.797-61.199-120-80.398zm134.4 66-98.398-98.398c6-6 12-13.199 16.801-19.199 20.398 31.199 52.797 76.797 81.598 117.6zm141.6-120c-12-10.801-25.199-18-40.801-24-21.602-7.1992-46.801 0-57.602 2.3984-4.8008 1.1992-9.6016 2.3984-14.398 3.6016-9.6016 2.3984-16.801 3.6016-24 4.8008-25.199 3.6016-48-1.1992-69.602-9.6016 4.8008-7.1992 8.3984-13.199 12-20.398 20.398 10.801 45.602 15.602 76.801 8.3984 7.1992-1.1992 31.199-7.1992 37.199-8.3984 14.398-1.1992 36 7.1992 40.801 10.801 16.805 7.1992 30.004 19.199 39.602 32.398zm-27.598-48c-6-3.6016-26.398-15.602-50.398-13.199-3.6016 0-46.801 8.3984-46.801 8.3984-16.801 4.8008-38.398 3.6016-60-8.3984 4.8008-10.801 8.3984-21.602 10.801-32.398 16.801 9.6016 38.398 15.602 63.602 18h13.199 10.801c13.199 1.1992 33.602-1.1992 56.398 15.602 15.602 12 27.602 24 36 38.398-8.4023-10.801-20.402-19.203-33.602-26.402zm-372 50.398c-12 22.801-37.199 24-68.398 18-2.3984-1.1992-4.8008-1.1992-6-2.3984-6-3.6016-9.6016-9.6016-10.801-19.199 2.3984 1.1992 6 2.3984 8.3984 2.3984 2.3984 1.1992 6 1.1992 8.3984 2.3984 22.801 3.6016 39.602 7.1992 66-6 2.4023 1.2031 2.4023 3.6016 2.4023 4.8008zm16.801-45.598c3.6016 0 9.6016 0 13.199-2.3984 2.3984-1.1992 15.602-10.801 18-10.801 2.3984 0 7.1992 13.199 10.801 15.602l-2.3984 1.1992c-1.1992 1.1992-9.6016-7.1992-12-4.8008 0 0-3.6016 1.1992-6 4.8008-4.8008 3.6016-8.3984 9.6016-14.398 9.6016-25.199 2.3984-43.199-12-62.398 8.3984-6 2.3984-9.6016 2.3984-15.602 0-1.1992 0-3.6016-1.1992-4.8008-1.1992-4.8008-4.8008-9.6016-6-15.602-4.8008-2.3984 0-3.6016 1.1992-6 1.1992-15.602 6-40.801-1.1992-52.801-15.602-3.6016-3.6016-15.602 9.6016-16.801 3.6016 2.3984 1.1992 16.801-21.602 18-21.602 0 0 2.3984 8.3984 4.8008 9.6016 16.801 7.1992 33.602 10.801 51.602 2.3984 2.3984 0 6-2.3984 8.3984-2.3984 7.1992 0 12 2.3984 19.199 4.8008 1.1992 0 3.6016 1.1992 4.8008 1.1992 1.1992 0 3.6016-1.1992 4.8008-1.1992 7.1992-1.1992 10.801-7.1992 18-7.1992h7.1992c4.8008 1.1992 15.602 4.8008 19.199 6 4.8008 3.5977 8.3984 3.5977 10.801 3.5977zm-178.8-224.4c-28.801 1.1992-49.199 20.398-72 34.801 2.3984-39.602 48-56.398 82.801-54 3.6016 0 8.3984 0 12 1.1992 3.6016 1.1992 8.3984 1.1992 12 2.3984 3.6016 1.1992 6 1.1992 9.6016 2.3984 6 2.3984 12 4.8008 16.801 8.3984 2.3984 1.1992 3.6016 2.3984 6 4.8008 4.8008 4.8008 8.3984 10.801 7.1992 19.199-2.3984-1.1992-3.6016-2.3984-6-2.3984-2.3984-1.1992-3.6016-1.1992-6-2.3984-28.805-16.797-60.004-14.398-62.402-14.398zm80.398 164.4c6-2.3984 15.602 10.801 27.602 10.801 2.3984 0 22.801 3.6016 37.199-21.602 1.1992 1.1992 1.1992 2.3984 2.3984 4.8008v1.1992c2.3984 8.3984 2.3984 19.199-3.6016 24-1.1992 1.1992-2.3984 2.3984-4.8008 3.6016-6 3.6016-12 6-19.199 7.1992h-4.8008c-4.8008 1.1992-10.801 0-16.801-2.3984-2.3984-1.1992-3.6016-1.1992-4.8008-2.3984-7.1953-4.8047-23.996-20.402-13.195-25.203zm56.402-51.602c0-3.6016-1.1992-19.199 0-30 0-2.3984 1.1992-19.199 2.3984-33.602 0-3.6016 1.1992-7.1992 1.1992-10.801 6-33.602 37.199-58.801 70.801-58.801h8.3984 8.3984c2.3984 0 6 1.1992 9.6016 1.1992 3.6016 0 6 1.1992 9.6016 1.1992 15.602 6 43.199 6 49.199 27.602-19.199-8.3984-39.602-12-60-14.398-16.801-2.3984-33.602 1.1992-37.199 2.3984-40.801 7.1992-48 74.398-49.199 81.602 0 2.3984-1.1992 6-1.1992 8.3984-1.1992 8.3984-2.3984 16.801-2.3984 25.199 0 2.3984-2.3984 4.8008-4.8008 3.6016-2.4023 1.2031-4.8008-1.1953-4.8008-3.5977zm147.6-64.801c-10.801-6-21.602-15.602-39.602-16.801h-3.6016c-7.1992 0-14.398 1.1992-21.602 3.6016-3.6016 1.1992-8.3984 2.3984-24 9.6016-2.3984 1.1992-9.6016 3.6016-12 9.6016 0 0-1.1992 4.8008 3.6016 7.1992 2.3984 1.1992 7.1992-1.1992 10.801-2.3984 8.3984-3.6016 6-2.3984 13.199-4.8008 1.1992 0 12-6 15.602-3.6016-3.5977 1.1992-14.398 8.3984-15.598 10.801-1.1992 7.1992 2.3984 12 8.3984 16.801 6 4.8008 44.398 9.6016 50.398-21.602 16.801 3.6016 21.602 3.6016 19.199-4.8008-1.1953-1.1992-4.7969-2.3984-4.7969-3.6016zm-30 10.801c-16.801 3.6016-19.199-2.3984-18-9.6016 4.8008-6 18-7.1992 22.801 0 7.1992 4.8008 2.3984 8.4023-4.8008 9.6016zm-207.6-14.398c-8.3984-6-18-10.801-28.801-12-2.3984 0-4.8008-1.1992-8.3984-1.1992h-7.1992c-16.801 1.1992-33.602 8.3984-40.801 15.602-1.1992 1.1992-8.3984 6-4.8008 10.801 3.6016 4.8008 14.398-1.1992 24-4.8008 1.1992 0 2.3984-1.1992 2.3984-1.1992 28.801-9.6016 0 6 1.1992 6v2.3984c0 3.6016 8.3984 24 40.801 20.398 13.199-1.1992 13.199-7.1992 19.199-16.801 1.1992-1.1992 3.6016-2.3984 4.8008-3.6016 1.1992 0 2.3984-1.1992 3.6016-1.1992 2.3984-1.1992 7.1992 0 7.1992-3.6016 0 0.003906-9.6016-9.5977-13.199-10.797zm-8.4023 12c0 4.8008-6 4.8008-13.199 4.8008-6 1.1992-18-3.6016-18-8.4023 1.1992-14.398 30-8.3984 31.199 3.6016z"/>
</svg>
