<?xml version="1.0" encoding="UTF-8"?>
<svg width="1200pt" height="1200pt" version="1.1" viewBox="0 0 1200 1200" xmlns="http://www.w3.org/2000/svg">
 <path d="m658.8 769.2c-9.6016 20.398-31.199 20.398-58.801 15.602-2.3984-1.1992-3.6016-1.1992-6-2.3984-4.8008-3.6016-8.3984-8.3984-9.6016-16.801 2.3984 1.1992 4.8008 1.1992 7.1992 2.3984 2.3984 1.1992 4.8008 1.1992 7.1992 1.1992 19.199 3.6016 33.602 6 56.398-4.8008 3.6055 0 4.8047 2.4023 3.6055 4.8008zm42-51.598c-2.3984 0-13.199 9.6016-15.602 9.6016-3.6016 1.1992-8.3984 1.1992-12 1.1992-2.3984 0-6 0-8.3984-1.1992-2.3984-1.1992-12-3.6016-16.801-4.8008h-6c-6 1.1992-9.6016 6-15.602 7.1992-1.1992 0-2.3984 1.1992-4.8008 1.1992-1.1992 0-3.6016-1.1992-4.8008-1.1992-6-2.3984-10.801-4.8008-16.801-4.8008-2.3984 0-6 1.1992-7.1992 1.1992-15.602 7.1992-30 3.6016-44.398-2.3984-2.3984-1.1992-4.8008-8.3984-4.8008-8.3984-1.1992-1.1992-14.398 19.199-15.602 18 0 4.8008 10.801-7.1992 14.398-3.6016 10.801 12 32.398 18 45.602 13.199 1.1992 0 3.6016-1.1992 4.8008-1.1992 4.8008-1.1992 9.6016 0 13.199 3.6016 1.1992 1.1992 2.3984 1.1992 4.8008 1.1992 6 1.1992 8.3984 2.3984 13.199 0 16.801-16.801 32.398-4.8008 54-7.1992 4.8008 0 8.3984-4.8008 12-8.3984 2.3984-3.6016 6-4.8008 6-4.8008 1.1992-2.3984 9.6016 4.8008 9.6016 3.6016 0 0 2.3984 0 1.1992-1.1992 0.003906 1.1953-4.7969-10.805-5.9961-10.805zm-124.8-170.4c1.1992 1.1992 3.6016 1.1992 4.8008 2.3984 1.1992 1.1992 3.6016 1.1992 4.8008 2.3984 0-6-2.3984-12-6-15.602-1.1992-1.1992-3.6016-2.3984-4.8008-3.6016-4.8008-2.3984-9.6016-4.8008-14.398-7.1992-2.3984-1.1992-4.8008-1.1992-8.3984-2.3984-3.6016-1.1992-7.1992-1.1992-10.801-2.3984-3.6016 0-7.1992-1.1992-10.801-1.1992-30-1.1992-68.398 13.199-70.801 46.801 19.199-12 36-28.801 61.199-30 2.3984 1.2031 28.801-1.1992 55.199 10.801zm24 152.4c1.1992 1.1992 3.6016 1.1992 4.8008 2.3984 4.8008 2.3984 9.6016 2.3984 14.398 2.3984h4.8008c6-1.1992 12-2.3984 16.801-6l3.6016-3.6016c6-4.8008 6-13.199 2.3984-20.398v-1.1992c-1.1992-1.1992-1.1992-2.3984-2.3984-3.6016-13.199 21.602-30 18-32.398 18-9.6016 0-18-12-22.801-9.6016-9.6016 3.6055 4.7969 16.805 10.797 21.605zm132-176.4c-2.3984 0-6-1.1992-8.3984-1.1992-2.3984 0-4.8008-1.1992-7.1992-1.1992h-7.1992-7.1992c-30 0-56.398 21.602-61.199 50.398 0 2.3984-1.1992 6-1.1992 8.3984-1.1992 12-2.3984 26.398-2.3984 28.801-1.1992 8.3984 0 22.801 0 25.199 0 2.3984 1.1992 4.8008 3.6016 4.8008 2.3984 0 4.8008-1.1992 4.8008-3.6016 0-7.1992 1.1992-14.398 2.3984-21.602 0-2.3984 1.1992-4.8008 1.1992-7.1992 1.1992-6 7.1992-62.398 42-69.602 2.3984 0 16.801-3.6016 31.199-1.1992 16.801 2.3984 34.801 4.8008 51.602 12-4.8086-19.195-28.809-19.195-42.008-23.996zm37.199 58.801c1.1992 6-2.3984 7.1992-16.801 3.6016-6 26.398-38.398 21.602-43.199 18-4.8008-3.6016-8.3984-8.3984-7.1992-14.398 0-1.1992 10.801-8.3984 12-9.6016-2.3984-2.3984-12 2.3984-13.199 2.3984-6 2.3984-4.8008 1.1992-12 4.8008-2.3984 1.1992-7.1992 2.3984-9.6016 1.1992-3.6016-1.1992-2.3984-6-2.3984-6 1.1992-4.8008 8.3984-7.1992 10.801-8.3984 14.398-7.1992 18-7.1992 20.398-8.3984 6-2.3984 12-3.6016 19.199-2.3984h3.6016c15.602 1.1992 25.199 9.6016 33.602 14.398-0.003906 2.3984 2.3984 3.5977 4.7969 4.7969zm-26.398-2.3984c-4.8008-6-15.602-6-20.398 0-1.1992 6 1.1992 12 15.602 8.3984 5.9961-1.1992 10.797-4.8008 4.7969-8.3984zm-236.4 9.5977v-2.3984c-1.1992 0 24-13.199-1.1992-4.8008-1.1992 0-1.1992 0-2.3984 1.1992-8.3984 2.3984-16.801 7.1992-20.398 3.6016-3.6016-4.8008 2.3984-7.1992 3.6016-9.6016 7.1992-6 20.398-12 34.801-13.199h6c2.3984 0 4.8008 0 7.1992 1.1992 8.3984 1.1992 16.801 4.8008 25.199 10.801 2.3984 2.3984 10.801 9.6016 10.801 10.801 0 2.3984-4.8008 2.3984-6 2.3984-1.1992 0-2.3984 1.1992-3.6016 1.1992-1.1992 0-2.3984 2.3984-3.6016 2.3984-4.8008 8.3984-4.8008 13.199-16.801 14.398-26.398 2.4062-33.602-14.395-33.602-17.996zm36 1.1992c6-1.1992 10.801 0 10.801-4.8008-1.1992-9.5977-25.199-15.598-26.398-3.5977 0 4.8008 10.801 9.6016 15.598 8.3984zm427.2 345.6c-2.3984 1.1992-6 2.3984-8.3984 2.3984l160.8 129.6c-15.602-10.801-94.801-68.398-174-127.2h-1.1992-3.5977-3.6016c-2.3984 0-4.8008 0-7.1992-1.1992-3.6016-1.1992-7.1992-1.1992-10.801-2.3984-8.3984 2.3984-16.801 4.8008-26.398 4.8008h-15.602c-4.8008 0-9.6016-1.1992-14.398-1.1992-9.6016-1.1992-19.199-4.8008-28.801-8.3984-9.6016-4.8008-18-9.6016-24-18-3.6016-3.6016-6-8.3984-8.3984-13.199-2.3984-4.8008-3.6016-9.6016-4.8008-15.602 0-4.8008 0-10.801 1.1992-15.602 1.1992-4.8008 3.6016-9.6016 7.1992-14.398 2.3984-3.6016 6-7.1992 9.6016-10.801-27.602-20.398-46.801-33.602-52.801-37.199-4.8008 3.6016-9.6016 6-14.398 9.6016-3.6016 2.3984-4.8008 4.8008-8.3984 6l99.602 236.4-118.8-228c-3.6016 1.1992-8.3984 2.3984-12 3.6016-1.1992 0 109.2 230.4 109.2 230.4-0.007813-0.003907-129.61-223.21-130.81-223.21-2.3984 0-21.602 4.8008-24 4.8008-2.3984 0-4.8008 1.1992-7.1992 1.1992-2.3984 0-4.8008 1.1992-7.1992 1.1992-7.1992 31.199-15.602 286.8-22.801 326.4v-324h-4.8008-7.2031-3.6016v324c-7.1992-42-15.602-296.4-22.801-325.2h-3.6016c-9.6016-1.1992-19.199-3.6016-28.801-6-4.8008 6-128.4 232.8-128.4 232.8l109.2-236.4c-1.1992 0-10.801-6-12-6-3.6016-1.1992-7.1992-2.3984-10.801-4.8008-9.6016 16.801-98.398 241.2-98.398 241.2s74.398-232.8 81.602-249.6c0 0-1.1992 0-1.1992-1.1992-6-3.6016-12-7.1992-18-12-28.797 16.801-336 270-370.8 294 0 0-1.1992 0-1.1992 1.1992l348-307.2c-9.6016 4.8008-19.199 8.3984-30 12-3.6016 1.1992-7.1992 2.3984-10.801 2.3984l-316.8 278.4c1.1992-1.1992 1.1992-2.3984 2.3984-2.3984 16.801-25.199 196.8-188.4 283.2-272.4-14.398 0-27.602 0-42-2.3984-7.1992-1.1992-14.398-2.3984-20.398-4.8008-3.6016-1.1992-7.1992-2.3984-10.801-3.6016h-1.1992c-4.8008 1.1992-9.6016 1.1992-14.398 1.1992-2.3984 1.1992-4.8008 1.1992-8.3984 2.3984-3.6016 1.1992-7.1992 1.1992-12 2.3984-3.6016 0-7.1992 1.1992-12 1.1992h-2.3984-2.3984-6c-3.6016 0-7.1992-1.1992-12-1.1992-6-1.1992-13.199-2.3984-19.199-4.8008-7.1992 2.3984-13.199 4.8008-20.398 7.1992-8.3984 2.3984-16.801 3.6016-24 4.8008-3.6016 0-8.3984 1.1992-12 1.1992h-6-6c-8.3984 0-16.801-1.1992-25.199-2.3984-8.3984-1.1992-16.801-3.6016-24-6-8.3984-2.3984-15.602-6-22.801-9.6016-14.398-7.1992-28.801-18-39.602-30-4.8008-6-9.6016-13.199-13.199-21.602-1.1992-3.6016-3.6016-8.3984-4.8008-12s-2.3984-8.3984-2.3984-12c-1.1992-8.3984 0-16.801 2.3984-25.199 2.3984-8.3984 6-15.602 10.801-22.801s10.801-13.199 16.801-19.199 13.199-10.801 20.398-14.398c2.3984-1.1992 4.8008-2.3984 7.1992-4.8008-34.801-2.3984-57.602-3.6016-58.801-3.6016h64.801c2.3984-1.1992 4.8008-2.3984 8.3984-3.6016 6-2.3984 12-4.8008 18-7.1992 0-2.3984 1.1992-3.6016 2.3984-6l-94.801 0.003906c10.801-2.3984 49.199-4.8008 97.199-6v-1.1992c3.6016-6 7.1992-10.801 12-15.602s9.6016-8.3984 14.398-12c4.8008-3.6016 10.801-6 15.602-8.3984 6-2.3984 10.801-4.8008 16.801-7.1992 6-2.3984 10.801-3.6016 16.801-4.8008s12-2.3984 16.801-3.6016c6-1.1992 12-1.1992 18-2.3984h8.3984 8.3984c6 0 12 0 18 1.1992 12 1.1992 24 2.3984 34.801 6 12 2.3984 22.801 7.1992 33.602 12 9.6016 4.8008 19.199 10.801 27.602 18 3.6016 0 8.3984 1.1992 12 1.1992s6 1.1992 8.3984 1.1992c1.1992-12 6-30 9.6016-42-12-4.8008-247.2-117.6-247.2-117.6s241.2 93.602 255.6 99.602c2.3984-4.8008 4.8008-9.6016 7.1992-14.398-13.203-4.8008-255.61-102-255.61-102s252 81.602 266.4 86.398c2.3984-3.6016 4.8008-6 7.1992-9.6016s6-7.1992 8.3984-10.801c-16.801-25.199-291.6-360-292.8-361.2l309.61 344.4c3.6016-3.6016 8.3984-7.1992 12-10.801l-307.2-343.2c33.602 22.801 301.2 313.2 326.4 328.8 6-4.8008 13.199-8.3984 20.398-12 4.8008-2.3984 9.6016-4.8008 14.398-7.1992l-89.996-260.4 79.199 171.6c0-1.1992 0-2.3984 1.1992-2.3984 1.1992-2.3984 1.1992-6 2.3984-8.3984l3.6016-8.3984s1.1992-1.1992 1.1992-1.1992l-69.598-159.61 78 142.8c2.3984-3.6016 6-7.1992 8.3984-10.801 2.3984-2.3984 3.6016-3.6016 6-6 1.1992-1.1992 2.3984-2.3984 2.3984-3.6016l3.6016-2.3984c8.3984-8.3984 18-14.398 27.602-20.398 4.8008-2.3984 9.6016-6 14.398-8.3984l14.398-7.2031c2.3984-1.1992 3.6016-1.1992 6-2.3984 4.8008-88.801 8.3984-184.8 13.199-208.8v-6 210c2.3984-1.1992 4.8008-1.1992 6-2.3984 2.3984-6 4.8008-12 8.3984-18 0-1.1992 1.1992-2.3984 2.3984-2.3984l0.007812-182.4c3.6016 19.199 7.1992 91.199 10.801 168 1.1992-1.1992 2.3984-2.3984 3.6016-3.6016 6-6 13.199-10.801 19.199-15.602 7.1992-4.8008 14.398-8.3984 21.602-12 7.1992-3.6016 14.398-6 22.801-9.6016 7.1992-2.3984 15.602-4.8008 22.801-7.1992 8.3984-2.3984 15.602-3.6016 24-4.8008 8.3984-1.1992 15.602-2.3984 24-2.3984h12 12c8.3984 0 15.602 0 24 1.1992 8.3984 1.1992 15.602 2.3984 24 3.6016 3.6016 1.1992 8.3984 1.1992 12 2.3984 3.6016 1.1992 8.3984 1.1992 12 2.3984 7.1992 2.3984 15.602 4.8008 22.801 7.1992l6 2.3984c2.3984 1.1992 3.6016 1.1992 6 2.3984 3.6016 1.1992 7.1992 3.6016 10.801 4.8008 3.6016 1.1992 7.1992 3.6016 10.801 6 3.6016 2.3984 7.1992 4.8008 10.801 7.1992l4.8008 3.6016c1.1992 1.1992 3.6016 2.3984 4.8008 3.6016 2.3984 1.1992 3.6016 3.6016 6 4.8008h7.1992 6 6c3.6016 0 7.1992 0 12 1.1992 3.6016 0 7.1992 1.1992 12 1.1992l6 1.1992c2.3984 0 3.6016 1.1992 6 1.1992l6 1.1992c2.3984 1.1992 3.6016 1.1992 6 2.3984s3.6016 1.1992 6 2.3984l4.8008 2.3984c57.602-51.602 102-91.199 102-90h1.1992l-96 93.602c1.1992 1.1992 2.3984 1.1992 4.8008 2.3984 3.6016 1.1992 6 3.6016 9.6016 6l91.199-90s-37.199 39.602-86.398 93.602c1.1992 1.1992 2.3984 2.3984 4.8008 3.6016 2.3984 2.3984 6 4.8008 8.3984 8.3984l3.6016 4.8008c1.1992 1.1992 2.3984 2.3984 3.6016 4.8008 2.3984 3.6016 4.8008 6 7.1992 9.6016l4.7969 9.6016c1.1992 3.6016 3.6016 7.1992 4.8008 12 1.1992 2.3984 1.1992 3.6016 1.1992 6v1.1992c7.1992 4.8008 13.199 8.3984 20.398 13.199 7.1992 6 14.398 12 21.602 19.199 6 7.1992 12 15.602 16.801 24 4.8008 8.3984 7.1992 18 8.3984 28.801v14.398c0 2.3984 0 4.8008-1.1992 7.1992 0 2.3984-1.1992 4.8008-1.1992 7.1992-2.3984 9.6016-7.1992 19.199-12 27.602-4.8008 8.3984-12 15.602-19.199 22.801-3.6016 3.6016-7.1992 6-10.801 9.6016-3.6016 3.6016-8.3984 6-12 8.3984-8.3984 4.8008-16.801 9.6016-25.199 14.398-8.3984 3.6016-18 7.1992-27.602 9.6016-9.6016 2.3984-19.199 4.8008-28.801 6-4.8008 1.1992-9.6016 1.1992-14.398 1.1992h-3.6016c-64.801 33.602-144 75.602-152.4 79.199 2.3984 9.6016 3.6016 18 4.8008 26.398 30 6 294 12 326.4 18l-331.21 0.011719v3.6016 4.8008 3.6016 4.8008h325.2c-33.598 5.9961-295.2 13.195-326.4 19.195 0 2.3984-1.1992 6-1.1992 8.3984-1.1992 7.1992-3.6016 15.602-6 25.199l208.8 76.801-213.6-57.602c-2.3984 4.8008-3.6016 10.801-6 15.602 15.602 7.1992 204 51.602 213.6 63.602 0 0-207.6-40.801-223.2-46.801-2.3984 2.3984-9.6016 12-12 14.398-3.6016 4.8008-7.1992 9.6016-10.801 14.398 3.6016 6 22.801 22.801 49.199 46.801 1.1992-2.3984 3.6016-4.8008 6-7.1992 6-6 12-9.6016 19.199-13.199 7.1992-3.6016 13.199-4.8008 20.398-7.1992 7.1992-1.1992 14.398-2.3984 21.602-2.3984h4.8008 4.8008c3.6016 0 7.1992 0 10.801 1.1992 3.6016 0 7.1992 1.1992 10.801 1.1992 3.6016 1.1992 7.1992 1.1992 10.801 2.3984 3.6016 1.1992 7.1992 2.3984 9.6016 3.6016 3.6016 1.1992 7.1992 2.3984 9.6016 4.8008 1.1992 1.1992 3.6016 1.1992 4.8008 2.3984 1.1992 1.1992 3.6016 2.3984 4.8008 3.6016 2.3984 1.1992 4.8008 3.6016 6 6h2.3984 4.8008c3.6016 0 6 1.1992 9.6016 1.1992 3.6016 0 6 1.1992 9.6016 2.3984 1.1992 0 3.6016 1.1992 4.8008 1.1992l2.3984 1.1992c1.1992 0 2.3984 1.1992 2.3984 1.1992h1.1992l2.3984 1.1992 10.801 10.801c2.3984 2.3984 3.6016 6 4.8008 9.6016 1.1992 1.1992 1.1992 3.6016 1.1992 4.8008 0 1.1992 0 1.1992 1.1992 2.3984 7.1992 3.6016 13.199 7.1992 19.199 13.199 3.6016 3.6016 6 7.1992 8.3984 10.801 2.3984 3.6016 3.6016 8.3984 4.8008 13.199v1.1992 1.1992 3.6016c0 2.3984 0 4.8008-1.1992 7.1992-1.1992 4.8008-3.6016 8.3984-6 13.199-4.8008 7.1992-12 13.199-19.199 18s-15.602 8.3984-24 10.801c-3.6016 1.1992-8.3984 2.3984-13.199 2.3984-2.3984 0-4.8008 0-6 1.1992h-6-8.3984c62.398 52.801 116.4 99.602 126 112.8l-142.8-115.2c-6.0078 1.207-13.207 0.007812-19.207-3.5938zm13.199-440.4c-6 0-12 0-18-1.1992-7.1992-1.1992-14.398-1.1992-21.602-3.6016l-103.2 43.199c2.3984 4.8008 6 13.199 7.1992 18zm-62.402-9.6016c-3.6016-1.1992-8.3984-2.3984-12-4.8008-7.1992-3.6016-15.602-7.1992-22.801-10.801-8.3984 3.6016-16.801 6-25.199 8.3984-4.8008 1.1992-10.801 2.3984-15.602 2.3984-2.3984 0-4.8008 1.1992-7.1992 1.1992h-15.602-8.3984-3.6016l-3.6016 3.6016c3.6016 3.6016 6 7.1992 9.6016 12 4.8008 6 8.3984 12 12 18zm-249.6-297.6c-6 4.8008-10.801 9.6016-15.602 15.602s-8.3984 12-10.801 18c-2.3984 6-4.8008 13.199-4.8008 19.199l-1.1992 8.3984-8.3984 1.1992-8.3984 1.2031c-2.3984 0-4.8008 1.1992-7.1992 1.1992-4.8008 1.1992-9.6016 2.3984-15.602 3.6016l-14.398 4.7969c-4.8008 1.1992-9.6016 4.8008-14.398 6-9.6016 4.8008-18 10.801-26.398 16.801l-2.4062 3.6016c-1.1992 1.1992-2.3984 1.1992-2.3984 2.3984-2.3984 1.1992-3.6016 3.6016-6 6-3.6016 3.6016-7.1992 7.1992-9.6016 12-1.1992 2.3984-3.6016 3.6016-4.8008 6-1.1992 2.3984-2.3984 4.8008-3.6016 7.1992l-3.6016 7.1992c-1.1992 2.3984-1.1992 4.8008-2.3984 7.1992 0 1.1992-1.1992 2.3984-1.1992 3.6016l-2.3984 7.2031v11.996 7.1992c1.1992 9.6016 3.6016 20.398 8.3984 28.801 4.8008 9.6016 10.801 18 18 25.199 7.1992 7.1992 15.602 14.398 24 19.199 2.3984 1.1992 4.8008 3.6016 7.1992 4.8008 2.3984 1.1992 4.8008 2.3984 7.1992 3.6016 4.8008 2.3984 9.6016 4.8008 14.398 7.1992 19.199 8.3984 39.602 13.199 60 15.602 10.801 1.1992 20.398 2.3984 31.199 2.3984h7.2031 7.1992c4.8008 0 10.801-1.1992 15.602-1.1992 10.801-1.1992 20.398-2.3984 31.199-4.8008 4.8008-1.1992 9.6016-2.3984 15.602-3.6016 4.8008-1.1992 9.6016-3.6016 14.398-4.8008l3.6016-1.1992 3.6016 1.1992c8.3984 3.6016 18 6 26.398 7.1992 4.8008 1.1992 9.6016 1.1992 13.199 1.1992h7.1992 13.203c2.3984 0 4.8008 0 7.1992-1.1992 4.8008-1.1992 9.6016-1.1992 13.199-2.3984 8.3984-2.3984 18-4.8008 25.199-9.6016l3.6016-1.1992 4.8008 2.3984c8.3984 3.6016 16.801 6 25.199 9.6016 8.3984 2.3984 16.801 4.8008 25.199 6 8.3984 1.1992 18 3.6016 26.398 3.6016 8.3984 1.1992 18 1.1992 26.398 1.1992h7.2031 6c4.8008 0 8.3984 0 13.199-1.1992 8.3984-1.1992 18-2.3984 26.398-3.6016 8.3984-2.3984 16.801-3.6016 25.199-7.1992 8.3984-2.3984 16.801-6 24-10.801 4.8008-2.3984 8.3984-4.8008 12-7.1992 3.6016-2.3984 7.1992-4.8008 10.801-8.3984 7.1992-6 13.199-12 18-19.199 4.8008-7.1992 9.6016-14.398 12-22.801 1.1992-2.3984 1.1992-4.8008 1.1992-6 0-2.3984 1.1992-4.8008 1.1992-6v-12c-1.1992-8.3984-3.6016-16.801-8.3984-24-3.6016-7.1992-9.6016-14.398-15.602-20.398s-13.199-12-21.602-15.602c-7.1992-4.8008-15.602-8.3984-24-10.801l-3.6016-1.1992-2.3984-9.6016c0-1.1992-1.1992-3.6016-1.1992-4.8008-1.1992-2.3984-2.3984-6-3.6016-8.3984l0.007812-11.996-2.3984-4.8008c-1.1992-2.3984-3.6016-6-6-8.3984-1.1992-1.1992-2.3984-2.3984-3.6016-3.6016l-3.6016-3.6016c-2.3984-2.3984-4.8008-4.8008-7.1992-7.1992-2.3984-2.3984-4.8008-4.8008-8.3984-6-2.3984-2.3984-6-3.6016-8.3984-4.8008-2.3984-1.1992-6-3.6016-8.3984-4.8008l-4.8008-2.3984c-1.1992-1.1992-3.6016-1.1992-4.8008-1.1992-1.1992 0-3.6016-1.1992-4.8008-1.1992l-4.8008-1.1992c-1.1992 0-3.6016-1.1992-4.8008-1.1992l-4.8008-1.1992c-3.6016-1.1992-7.1992-1.1992-9.6016-1.1992-3.6016 0-7.1992 0-9.6016-1.1992h-4.8008-4.8008c-3.6016 0-7.1992 0-9.6016 1.1992h-4.8008l-3.6016-3.6016c-4.8008-6-9.6016-12-14.398-16.801-1.1992-1.1992-2.3984-2.3984-4.8008-3.6016-1.1992-1.1992-2.3984-2.3984-4.8008-3.6016-3.6016-2.3984-6-4.8008-9.6016-6-3.6016-2.3984-6-3.6016-9.6016-6l-4.8008-2.3984-4.7852-1.1992c-7.1992-3.6016-14.398-6-21.602-8.3984-3.6016-1.1992-7.1992-2.3984-10.801-3.6016-3.6016-1.1992-7.1992-1.1992-10.801-2.3984-3.6016-1.1992-7.1992-1.1992-12-2.3984-3.6016 0-7.1992-1.1992-12-1.1992-7.1992-1.1992-15.602-1.1992-22.801-1.1992h-12c-3.6016 0-7.1992 0-12 1.1992-15.602 1.1992-31.199 3.6016-45.602 8.3984-7.1992 2.3984-14.398 4.8008-21.602 7.1992-7.1992 2.3984-14.398 6-20.398 9.6016m-223.2 604.8c2.3984-1.1992 4.8008-3.6016 7.1992-6 4.8008-4.8008 9.6016-9.6016 13.199-14.398 3.6016-4.8008 6-10.801 8.3984-16.801 1.1992-6 2.3984-12 1.1992-19.199-1.1992-6-2.3984-12-6-18s-7.1992-10.801-12-14.398c-4.8008-4.8008-9.6016-8.3984-15.602-10.801-6-3.6016-12-6-18-7.1992l-4.8008-1.1992-1.1992-8.3984v-3.6016c0-2.3984-1.1992-4.8008-2.3984-7.1992-1.1992-2.3984-1.1992-4.8008-2.3984-6-1.1992-2.3984-2.3984-3.6016-3.6016-6-1.1992-2.3984-2.3984-3.6016-4.8008-6l-4.8008-4.8008c-2.3984-1.1992-3.6016-3.6016-6-4.8008-1.1992-1.1992-2.3984-1.1992-2.3984-2.3984-1.1992-1.1992-2.3984-1.1992-3.6016-2.3984-1.1992 0-2.3984-1.1992-3.6016-1.1992-1.1992 0-2.3984-1.1992-3.6016-1.1992-2.3984-1.1992-4.8008-1.1992-7.1992-2.3984-2.3984-1.1992-4.8008-1.1992-7.1992-1.1992s-4.8008-1.1992-7.1992-1.1992c-2.3984 0-4.8008-1.1992-7.1992-1.1992h-7.1992-7.1992c-2.3984 0-4.8008 0-7.1992 1.1992l-3.5977-1.2109-2.3984-3.6016c-2.3984-3.6016-6-8.3984-9.6016-12-3.6016-3.6016-8.3984-7.1992-13.199-9.6016-4.8008-2.3984-9.6016-6-14.398-7.1992-4.8008-2.3984-10.801-3.6016-15.602-6-4.8008-1.1992-10.801-2.3984-16.801-3.6016-6-1.1992-10.801-2.3984-16.801-2.3984s-10.801-1.1992-16.801-1.1992h-8.3984-8.3984c-10.801 1.1992-22.801 2.3984-33.602 6-4.8008 1.1992-10.801 3.6016-15.602 4.8008-4.8008 2.3984-9.6016 4.8008-15.602 7.1992-4.8008 2.3984-9.6016 6-13.199 8.3984-4.8008 3.6016-8.3984 7.1992-12 10.801-3.6016 3.6016-6 8.3984-8.3984 13.199-2.3984 4.8008-3.6016 9.6016-3.6016 14.398v7.1992l-6 1.1992c-7.1992 1.1992-14.398 2.3984-21.602 4.8008-7.1992 2.3984-14.398 4.8008-21.602 8.3984-7.1992 3.6016-13.199 7.1992-19.199 12s-10.801 10.801-15.602 16.801c-2.3984 3.6016-3.6016 6-6 9.6016-1.1992 3.6016-2.3984 7.1992-3.6016 10.801-1.1992 3.6016-1.1992 7.1992-2.3984 10.801v6 6c1.1992 7.1992 2.3984 14.398 6 21.602 4.8047 3.6016 8.4062 9.6016 14.406 14.402 10.801 10.801 24 18 37.199 24 7.1992 2.3984 14.398 4.8008 21.602 7.1992 7.1992 2.3984 14.398 3.6016 21.602 3.6016 7.1992 1.1992 14.398 1.1992 22.801 1.1992h4.7969 6c3.6016 0 7.1992 0 10.801-1.1992 7.1992-1.1992 14.398-2.3984 21.602-3.6016 7.1992-1.1992 14.398-3.6016 21.602-7.1992l3.6016-1.1992 3.6016 1.1992c6 2.3984 12 3.6016 19.199 4.8008 3.6016 0 6 1.1992 9.6016 1.1992h4.8008 2.3984 2.3984c3.6016 0 6 0 9.6016-1.1992 3.6016 0 6-1.1992 9.6016-2.3984 6-1.1992 12-3.6016 18-7.1992l4.8008-2.3984 3.6016 2.3984c6 3.6016 10.801 6 16.801 8.3984 6 2.3984 12 4.8008 18 6 12 3.6016 25.199 4.8008 38.398 4.8008h9.6016c3.6016 0 6 0 9.6016-1.1992 6-1.1992 13.199-1.1992 19.199-3.6016 13.199-2.3984 25.199-7.1992 37.199-13.199l4.7969-2.3984c3.5898 2.3945 4.793 1.1953 5.9922 1.1953zm9.5977-318c-7.1992 7.1992-15.602 14.398-21.602 21.602-7.1992 7.1992-13.199 15.602-19.199 25.199-6 8.3984-10.801 18-15.602 27.602-4.8008 9.6016-8.3984 19.199-10.801 28.801-1.1992 4.8008-2.3984 9.6016-3.6016 15.602 0 2.3984-1.1992 4.8008-1.1992 7.1992 0 2.3984-1.1992 4.8008-1.1992 7.1992s-1.1992 6-1.1992 8.3984c2.3984 1.1992 4.8008 1.1992 7.1992 2.3984 1.1992 0 2.3984 1.1992 3.6016 1.1992 1.1992 0 2.3984 1.1992 3.6016 2.3984 1.1992 1.1992 2.3984 1.1992 3.6016 2.3984 1.1992 1.1992 2.3984 1.1992 3.6016 2.3984 2.3984 1.1992 4.8008 3.6016 7.1992 4.8008 2.3984 2.3984 4.8008 3.6016 6 6l6 6c2.3984 2.3984 3.6016 4.8008 4.8008 7.1992 1.1992 2.3984 3.6016 4.8008 4.8008 7.1992 1.1992 2.3984 2.3984 4.8008 3.6016 8.3984 0 1.1992 1.1992 2.3984 1.1992 4.8008 4.8008 3.6016 9.6016 6 14.398 9.6016 6 4.8008 10.801 9.6016 15.602 15.602s8.3984 12 12 18 4.8008 13.199 6 20.398 0 14.398-1.1992 21.602c-2.3984 7.1992-4.8008 13.199-8.3984 19.199-3.6016 6-8.3984 10.801-14.398 15.602-1.1992 1.1992-2.3984 2.3984-3.6016 3.6016 0 0-1.1992 0-1.1992 1.1992-1.1992 0-1.1992 1.1992-2.3984 1.1992 1.1992 1.1992 3.6016 2.3984 4.8008 4.8008 8.3984 6 15.602 12 25.199 18 2.3984 1.1992 4.8008 2.3984 6 3.6016l3.6016 2.3984 3.6016 1.1992c2.3984 1.1992 4.8008 2.3984 7.1992 3.6016 2.3984 1.1992 4.8008 2.3984 7.1992 3.6016 9.6016 3.6016 18 7.1992 27.602 9.6016 4.8008 1.1992 9.6016 2.3984 14.398 3.6016 2.3984 0 4.8008 1.1992 7.1992 1.1992 2.3984 0 4.8008 1.1992 7.1992 1.1992 2.3984 0 4.8008 1.1992 7.1992 1.1992 2.3984 0 4.8008 0 7.1992 1.1992h7.1992 7.1992 7.1992 7.1992 7.1992c2.3984 0 4.8008 0 7.1992-1.1992 4.8008-1.1992 9.6016-1.1992 13.199-2.3984 2.3984 0 4.8008-1.1992 7.1992-1.1992s4.8008-1.1992 6-1.1992c4.8008-1.1992 8.3984-2.3984 13.199-3.6016 4.8008-1.1992 8.3984-2.3984 12-3.6016 12-4.8008 24-9.6016 34.801-16.801 3.6016-2.3984 7.1992-3.6016 10.801-6 26.398-18 46.801-39.602 61.199-61.199 7.1992-10.801 13.199-21.602 16.801-31.199 4.8008-9.6016 8.3984-19.199 10.801-28.801 2.3984-8.3984 3.6016-16.801 4.8008-24 0-3.6016 1.1992-7.1992 1.1992-9.6016 0-3.6016 0-6 1.1992-8.3984v-12-3.6016-3.6016-10.801c0-4.8008-1.1992-10.801-2.3984-18-1.1992-7.1992-2.3984-15.602-4.8008-24-2.3984-8.3984-6-18-10.801-28.801-4.8008-9.6016-9.6016-20.398-16.801-31.199s-16.801-22.801-27.602-33.602c-1.1992 0-1.1992-1.1992-2.3984-1.1992-9.6016 3.6016-19.199 7.1992-28.801 10.801-10.801 2.3984-21.602 4.8008-33.602 6-8.3984 1.2031-13.199 1.2031-19.199 1.2031h-8.3984-8.4023c-10.801 0-22.801-1.1992-33.602-3.6016-22.801-3.6016-44.398-10.801-63.602-20.398-4.8008-2.3984-9.6016-4.8008-14.398-8.3984-2.3984-1.1992-4.8008-3.6016-7.1992-4.8008s-4.8008-3.6016-7.1992-4.8008c-8.3984-6-15.602-13.199-22.801-20.398-1.1992 1.1992-3.6016 1.1992-4.8008 2.3984-2.3984 1.1992-4.8008 2.3984-7.1992 3.6016l-3.6016 1.1992-3.6016 2.3984c-2.3984 1.1992-4.8008 2.3984-6 3.6016m327.61 391.2c3.6016-2.3984 8.3984-4.8008 12-6 1.1992 0 2.3984-1.1992 3.6016-1.1992l-54-43.199c-3.6016 3.6016-7.1992 7.1992-12 10.801zm135.6 84 4.8008-2.3984 3.6016 2.3984c6 3.6016 13.199 6 20.398 8.3984 7.1992 1.1992 14.398 2.3984 21.602 2.3984h6 6c3.6016 0 7.1992-1.1992 10.801-1.1992 7.1992-1.1992 14.398-3.6016 20.398-7.1992 6-3.6016 12-8.3984 16.801-13.199 2.3984-2.3984 3.6016-6 4.8008-9.6016 0-1.1992 1.1992-3.6016 1.1992-4.8008v-2.3984-1.1992-1.1992c0-1.1992 0-3.6016-1.1992-4.8008 0-1.1992-1.1992-3.6016-2.3984-4.8008-1.1992-3.6016-3.6016-6-6-8.3984-4.8008-6-10.801-9.6016-18-13.199l-2.3984-1.1992-1.1992-4.8008c0-1.1992 0-1.1992-1.1992-2.3984 0-1.1992-1.1992-2.3984-1.1992-3.6016-1.1992-2.3984-2.3984-4.8008-4.8008-7.1992-1.1992-2.3984-3.6016-3.6016-6-6-1.1992-1.1992-2.3984-1.1992-3.6016-2.3984l-0.007812-1.2031-2.3984-2.3984-2.3984-1.1992c-1.1992 0-2.3984-1.1992-3.6016-1.1992-2.3984-1.1992-6-1.1992-8.3984-2.3984-2.3984 0-6-1.1992-8.3984-1.1992h-4.8008-2.3984-1.1992l-4.8008-2.3984c-2.3984-2.3984-3.6016-4.8008-6-7.1992-2.3984-2.3984-4.8008-3.6016-7.1992-6-2.3984-1.1992-6-3.6016-8.3984-4.8008-2.3984-1.1992-6-2.3984-9.6016-3.6016-3.6016-1.1992-6-1.1992-9.6016-2.3984-3.6016 0-6-1.1992-9.6016-1.1992h-9.6016-4.8008-4.8008c-13.199 1.1992-26.398 4.8008-37.199 10.801-2.3984 1.1992-4.8008 3.6016-7.1992 4.8008-2.3984 2.3984-4.8008 3.6016-6 6-3.6016 4.8008-6 9.6016-6 14.398v7.1992l-9.6016 4.793c-8.3984 1.1992-16.801 3.6016-25.199 7.1992-3.6016 2.3984-7.1992 4.8008-10.801 7.1992-3.6016 2.3984-6 6-8.3984 9.6016-2.3984 3.6016-4.8008 7.1992-6 10.801 0 2.3984-1.1992 3.6016-1.1992 6v6c0 3.6016 1.1992 8.3984 3.6016 12 1.1992 3.6016 3.6016 7.1992 7.1992 10.801 6 6 13.199 10.801 21.602 14.398 8.3984 3.6016 16.801 6 25.199 7.1992 4.8008 0 8.3984 1.1992 13.199 0 4.8008 0 8.3984 0 13.199-1.1992 8.3984-1.1992 16.801-3.6016 25.199-7.1992l3.6016-1.1992 3.6016 1.1992c3.6016 1.1992 7.1992 2.3984 10.801 2.3984 2.3984 0 3.6016 0 6 1.1992h2.3984 2.3984 4.8008c2.3984 0 3.6016 0 4.8008-1.1992 3.5977-3.5977 7.1953-4.8008 9.5977-7.1992z"/>
</svg>
